# xmcd CD database file
#
# Track frame offsets:
#	187
#	18637
#	36065
#	55087
#	73860
#	94647
#	116500
#	129480
#	149235
#	168712
#	189922
#
# Disc length: 2761 seconds
#
# Revision: 0
# Processed by: cddbd v1.5.1PL0 Copyright (c) Steve Scherf et al.
# Submitted via: CDex 1.51
#
DISCID=9f0ac70b
DTITLE=深津絵里 - Sourire
DYEAR=1992
DGENRE=J-Pop
TTITLE0=ひとりずつのふたり
TTITLE1=sourire
TTITLE2=長い髪の女の子なら
TTITLE3=彼女のダンスを見にいこう
TTITLE4=神様お願い
TTITLE5=愛はすてき・愛は花束
TTITLE6=かがやき
TTITLE7=あなたは分かってる
TTITLE8=北風のキャンプ
TTITLE9=サヨナラの夕日
TTITLE10=花嫁
EXTD=YEAR: 1992
EXTT0=
EXTT1=
EXTT2=
EXTT3=
EXTT4=
EXTT5=
EXTT6=
EXTT7=
EXTT8=
EXTT9=
EXTT10=
PLAYORDER=
